<?xml version="1.0" encoding="utf-8"?>
<!-- Generator: Adobe Illustrator 17.0.0, SVG Export Plug-In . SVG Version: 6.00 Build 0)  -->
<!DOCTYPE svg PUBLIC "-//W3C//DTD SVG 1.1//EN" "http://www.w3.org/Graphics/SVG/1.1/DTD/svg11.dtd">
<svg version="1.1" id="Слой_1" xmlns="http://www.w3.org/2000/svg" xmlns:xlink="http://www.w3.org/1999/xlink" x="0px" y="0px"
	 width="112px" height="30px" viewBox="0 0 112 30" enable-background="new 0 0 112 30" xml:space="preserve">
<g>
	<path fill="#97C200" d="M12.673,18.531c2.38,0.829,3.531,2.969,3.531,4.841c0,4.707-4.092,6.58-8.398,6.58
		c-5.991,0-7.783-4.413-7.783-7.783c0-2.461,0-11.555,0-11.528c0-0.134,0.107-0.16,0.134-0.16c0,0,2.862-0.829,7.168-0.829
		c3.397,0,7.543,1.016,7.543,4.814c0,1.845-1.204,3.504-2.22,3.905C12.566,18.424,12.566,18.504,12.673,18.531z M5.879,12.646
		c0,1.177,0,3.691,0,5.055c2.514,0,3.45-1.391,3.45-2.808C9.33,12.486,7.19,12.326,5.879,12.646z M10.507,23.88
		c0-2.434-2.14-3.718-4.627-3.236c0,0.909,0,2.755,0,3.45c0.054,1.311,0.588,2.648,2.3,2.648
		C9.651,26.742,10.507,25.619,10.507,23.88z"/>
	<path fill="#97C200" d="M24.819,29.978c-4.306,0-7.489-3.236-7.489-7.275c0-4.012,3.183-7.275,7.489-7.275
		c4.306,0,7.489,3.263,7.489,7.275C32.308,26.742,29.206,29.978,24.819,29.978z M24.819,26.956c1.605,0,2.22-1.899,2.22-4.253
		c0-2.3-0.669-4.253-2.22-4.253c-1.578,0-2.22,1.952-2.22,4.253C22.599,24.95,23.268,26.956,24.819,26.956z"/>
	<path fill="#97C200" d="M49.807,27.999c-0.294,0.829-1.738,1.872-3.236,1.872c-2.14,0-3.932-1.551-3.932-4.066
		c0-0.909,0-3.343,0-5.189c0-2.675-2.701-1.739-2.728,1.418c0,3.049,0,7.168,0,7.168c0,0.134-0.134,0.16-0.134,0.16h-5.349
		c0,0-0.107-0.027-0.107-0.134c0,0,0.214-6.098,0.214-7.944c0-4.253-1.846-3.343-1.578-4.065c0.267-0.856,1.712-1.899,3.21-1.899
		c1.872,0,3.317,1.177,3.664,3.129c1.177-2.3,3.103-3.129,4.52-3.129c2.006,0,3.691,1.739,3.691,4.413
		c0,1.123-0.027,2.166-0.027,4.173C48.015,28.16,50.074,27.25,49.807,27.999z"/>
	<path fill="#97C200" d="M64.223,10.373c0,0,1.07,3.103-2.033,4.413c-2.006,0.829-5.135,0.054-5.135,0.054
		c0,0.588-0.027,1.926-0.027,3.37h4.36c0,0,0.187,0,0.16,0.16v2.835c0,0.134-0.187,0.134-0.187,0.134h-4.36v2.38
		c0.134,4.226,2.033,3.317,1.765,4.065c-0.321,0.963-1.979,2.167-3.584,2.167c-2.166,0-4.065-1.364-4.065-4.681
		c0-3.37,0.027-14.898,0.027-14.898c0-0.134,0.134-0.134,0.134-0.134h12.731C64.009,10.239,64.17,10.239,64.223,10.373z"/>
	<path fill="#97C200" d="M70.562,29.978c-4.306,0-7.489-3.236-7.489-7.275c0-4.012,3.183-7.275,7.489-7.275
		c4.306,0,7.489,3.263,7.489,7.275C78.051,26.742,74.948,29.978,70.562,29.978z M70.562,26.956c1.605,0,2.22-1.899,2.22-4.253
		c0-2.3-0.669-4.253-2.22-4.253c-1.578,0-2.22,1.952-2.22,4.253C68.342,24.95,69.011,26.956,70.562,26.956z"/>
	<path fill="#97C200" d="M86.69,29.978c-4.306,0-7.489-3.236-7.489-7.275c0-4.012,3.183-7.275,7.489-7.275
		c4.306,0,7.489,3.263,7.489,7.275C94.179,26.742,91.076,29.978,86.69,29.978z M86.69,26.956c1.605,0,2.22-1.899,2.22-4.253
		c0-2.3-0.669-4.253-2.22-4.253c-1.578,0-2.22,1.952-2.22,4.253C84.47,24.95,85.139,26.956,86.69,26.956z"/>
	<path fill="#97C200" d="M111.945,28.026c-0.267,0.856-1.712,1.899-3.21,1.899c-1.846,0-3.263-1.15-3.638-3.049
		c-0.909,1.765-2.354,3.049-4.226,3.049c-3.37,0-5.242-3.718-5.242-7.302c0-3.664,1.845-7.248,5.376-7.248
		c1.846,0,3.156,1.043,3.985,2.541c0-4.119,0-7.65,0-7.65c0-0.134,0.134-0.134,0.134-0.134h5.349c0,0,0.107,0,0.107,0.107
		c0,0,0,11.876,0,13.721C110.581,28.213,112.212,27.304,111.945,28.026z M105.151,22.623c0-2.006-0.695-3.638-2.006-3.638
		c-1.311,0-2.033,1.632-2.033,3.638c0,2.006,0.722,3.611,2.033,3.611C104.456,26.234,105.151,24.629,105.151,22.623z"/>
	<path fill="#97C200" d="M66.064,14.142c0,0-0.706-8.986,9.575-11.444C75.639,2.699,76.48,12.447,66.064,14.142z"/>
	<path fill="#97C200" d="M65.44,8.591c0,0-5.399-1.626-3.348-8.33C62.092,0.261,68.012,1.935,65.44,8.591z"/>
</g>
</svg>
